<svg id="undraw_Login_v483_4_" data-name="undraw_Login_v483 (4)" xmlns="http://www.w3.org/2000/svg" width="405.498" height="536.684" viewBox="0 0 405.498 536.684">
  <rect id="Retângulo_86" data-name="Retângulo 86" width="340.524" height="503.884" transform="translate(0 13.087)" fill="#535461"/>
  <path id="Caminho_139" data-name="Caminho 139" d="M247.724,530.023,0,516.985V13.1L247.724.063Z" transform="translate(0 -0.015)" fill="#009152"/>
  <circle id="Elipse_32" data-name="Elipse 32" cx="3.068" cy="3.068" r="3.068" transform="translate(223.948 286.119)" fill="#535461"/>
  <path id="Caminho_140" data-name="Caminho 140" d="M294.708,377.66l2.127,3.684,2.126,3.683h-8.505l2.126-3.683Z" transform="translate(-67.692 -88.015)" fill="#535461"/>
  <path id="Caminho_141" data-name="Caminho 141" d="M332.389,530.023l-15.172-.048.6-529.911h14.572Z" transform="translate(-73.929 -0.015)" fill="#009152"/>
  <g id="Grupo_22" data-name="Grupo 22" transform="translate(243.288)" opacity="0.1">
    <path id="Caminho_142" data-name="Caminho 142" d="M332.556,529.96H317.217L317.984,0h14.572Z" transform="translate(-317.217)" fill="#fff"/>
  </g>
  <circle id="Elipse_33" data-name="Elipse 33" cx="9.97" cy="9.97" r="9.97" transform="translate(217.046 256.975)" opacity="0.1"/>
  <circle id="Elipse_34" data-name="Elipse 34" cx="9.97" cy="9.97" r="9.97" transform="translate(217.046 255.441)" fill="#535461"/>
  <line id="Linha_1" data-name="Linha 1" y2="506.988" transform="translate(40.51 12.354)" fill="none" stroke="#000" stroke-miterlimit="10" stroke-width="2" opacity="0.1"/>
  <line id="Linha_2" data-name="Linha 2" y2="511.59" transform="translate(84.225 9.286)" fill="none" stroke="#000" stroke-miterlimit="10" stroke-width="2" opacity="0.1"/>
  <line id="Linha_3" data-name="Linha 3" y2="516.839" transform="translate(127.941 6.985)" fill="none" stroke="#000" stroke-miterlimit="10" stroke-width="2" opacity="0.1"/>
  <line id="Linha_4" data-name="Linha 4" y2="522.327" transform="translate(171.657 4.684)" fill="none" stroke="#000" stroke-miterlimit="10" stroke-width="2" opacity="0.1"/>
  <line id="Linha_5" data-name="Linha 5" y2="525.275" transform="translate(215.373 2.384)" fill="none" stroke="#000" stroke-miterlimit="10" stroke-width="2" opacity="0.1"/>
  <ellipse id="Elipse_35" data-name="Elipse 35" cx="30.294" cy="28.377" rx="30.294" ry="28.377" transform="translate(324.968 44.731)" fill="#2f2e41"/>
  <path id="Caminho_143" data-name="Caminho 143" d="M673.6,425.939l-7.669,10.737s-36.813,7.669-23.008,19.174,33.746-10.737,33.746-10.737L687.4,431.308Z" transform="translate(-406.531 -176.05)" fill="#ffb8b8"/>
  <path id="Caminho_144" data-name="Caminho 144" d="M722.392,266.939s-9.97,0-12.271,13.805-4.6,59.822-4.6,59.822-32.212,42.182-26.843,47.551,11.5,15.339,15.339,13.805,36.813-46.784,36.813-46.784Z" transform="translate(-415.446 -138.995)" fill="#009152"/>
  <path id="Caminho_145" data-name="Caminho 145" d="M722.392,266.939s-9.97,0-12.271,13.805-4.6,59.822-4.6,59.822-32.212,42.182-26.843,47.551,11.5,15.339,15.339,13.805,36.813-46.784,36.813-46.784Z" transform="translate(-415.446 -138.995)" opacity="0.1"/>
  <path id="Caminho_146" data-name="Caminho 146" d="M770.816,215.939s-.767,29.911-9.97,31.445-6.136,11.5-6.136,11.5,29.911,17.64,49.852,0l3.835-9.2s-13.8-9.97-7.669-23.775Z" transform="translate(-433.193 -127.109)" fill="#ffb8b8"/>
  <path id="Caminho_147" data-name="Caminho 147" d="M699.091,455.939s-45.25,84.364-28.377,110.44,42.182,79.762,46.017,79.762S742.04,635.4,740.506,628.5s-24.542-58.288-30.678-62.89-3.068-16.873-2.3-17.64S733.6,506.557,733.6,506.557s-.767,64.424,2.3,74.394-.767,81.3,3.068,84.364,21.474,8.436,24.542,3.835,12.271-74.394,6.136-90.5l11.5-110.44Z" transform="translate(-412.853 -183.042)" fill="#2f2e41"/>
  <path id="Caminho_148" data-name="Caminho 148" d="M752.41,722.939l-19.174,35.28s-27.61,19.941-8.436,23.008,30.678-4.6,30.678-4.6l16.873-12.271v-35.28Z" transform="translate(-424.757 -245.267)" fill="#2f2e41"/>
  <path id="Caminho_149" data-name="Caminho 149" d="M728.859,692.866l9.97,23.775s3.835,9.97,0,12.271-14.572,16.106-7.669,17.64a22.482,22.482,0,0,0,4.215.419,42.617,42.617,0,0,0,30.983-12.608l6.218-6.218s-21.3-49.045-21-48.681S728.859,692.866,728.859,692.866Z" transform="translate(-427.282 -235.135)" fill="#2f2e41"/>
  <circle id="Elipse_36" data-name="Elipse 36" cx="26.076" cy="26.076" r="26.076" transform="translate(330.72 55.084)" fill="#ffb8b8"/>
  <path id="Caminho_150" data-name="Caminho 150" d="M793.311,253.425l-8.053,8.053s-24.542,9.2-36.047,0c0,0,4.218-8.82,4.218-8.053s-33.362,5.752-36.43,19.557,2.3,37.58,2.3,37.58S697.826,411.8,706.262,414.1s87.432,21.475,86.665,6.9,6.136-74.394,6.136-74.394l26.843-51.385s-3.835-16.873-13.038-22.241S793.311,253.425,793.311,253.425Z" transform="translate(-421.558 -135.834)" fill="#009152"/>
  <path id="Caminho_151" data-name="Caminho 151" d="M765.49,448.939l-9.97,6.136s-38.347,26.076-18.407,30.678,31.445-18.407,31.445-18.407l7.669-9.2Z" transform="translate(-427.866 -181.411)" fill="#ffb8b8"/>
  <path id="Caminho_152" data-name="Caminho 152" d="M829.921,301.939l6.9,6.9s4.6,64.424-4.6,77.462-51.385,48.318-53.686,46.017-16.873-13.8-13.805-15.339,43.856-44.153,43.856-44.153l-3.208-59.385Z" transform="translate(-435.544 -147.152)" opacity="0.1"/>
  <path id="Caminho_153" data-name="Caminho 153" d="M833.921,298.939l6.9,6.9s4.6,64.423-4.6,77.462-51.385,48.318-53.686,46.017-16.873-13.805-13.8-15.339,43.856-44.153,43.856-44.153l-3.208-59.385Z" transform="translate(-436.476 -146.453)" fill="#009152"/>
  <path id="Caminho_154" data-name="Caminho 154" d="M779.084,156.965s-8.864-3.223-20.951,3.626l6.447,1.612s-9.67.806-10.878,13.7h4.432s-2.82,11.281,0,14.5l1.813-3.425,5.238,10.476,1.209-5.238,2.417.806,1.612-8.461s4.029,6.044,7.252,6.447v-5.239s8.864,10.073,11.684,9.67l-4.029-5.641,5.641,1.209-2.417-4.029,14.5,4.029-3.223-4.029,10.073,3.223,4.835,2.014s6.849-15.713-2.82-26.592S788.149,152.332,779.084,156.965Z" transform="translate(-433.072 -112.844)" fill="#2f2e41"/>
</svg>
